# xmcd CD database file
#
# Track frame offsets:
#	187
#	24455
#	46982
#	71565
#	94397
#	116367
#	138945
#	161145
#	182907
#	204375
#	226287
#	249565
#
# Disc length: 3694 seconds
#
# Revision: 2
# Processed by: cddbd v1.5PL3 Copyright (c) Steve Scherf et al.
# Submitted via: CDex 1.50beta10
#
DISCID=a30e6c0c
DTITLE=SPECIAL EFX - Here To Say
DYEAR=1997
DGENRE=Jazz
TTITLE0=Nine Lives Of The Cat
TTITLE1=Heavenly Delight (Your Face)
TTITLE2=Here To Say
TTITLE3=Since You've Been Away
TTITLE4=Lights Out
TTITLE5=Unfinished Business
TTITLE6=Lucky Seven
TTITLE7=New Passage
TTITLE8=Who's Smiling Now
TTITLE9=The Real Deal
TTITLE10=Brave New World
TTITLE11=Down Town
EXTD=YEAR: 1997
EXTT0=
EXTT1=
EXTT2=
EXTT3=
EXTT4=
EXTT5=
EXTT6=
EXTT7=
EXTT8=
EXTT9=
EXTT10=
EXTT11=
PLAYORDER=
